{
  "asset": {
    "version": "2.0",
    "generator": "THREE.GLTFExporter"
  },
  "scenes": [
    {
      "name": "Scene",
      "nodes": [
        13
      ]
    }
  ],
  "scene": 0,
  "nodes": [
    {
      "matrix": [
        0.7155337548245955,
        0.6985772097252453,
        -2.2724399869568704e-7,
        0,
        0.19291020972530715,
        -0.19759235617700086,
        0.9611149635794303,
        0,
        0.671413772755822,
        -0.6877110364205888,
        -0.2761469919616629,
        0,
        1602.734006,
        -945.335972,
        621.487121,
        1
      ],
      "name": "View-Perspectiva",
      "camera": 0
    },
    {
      "matrix": [
        1,
        0,
        0,
        0,
        0,
        1,
        0,
        0,
        0,
        0,
        1,
        0,
        289.85344,
        399.413025,
        2098.904633,
        1
      ],
      "name": "View-Superior",
      "camera": 1
    },
    {
      "matrix": [
        1,
        0,
        0,
        0,
        0,
        2.220446049250313e-16,
        1,
        0,
        0,
        -1,
        2.220446049250313e-16,
        0,
        289.85344,
        279.806952,
        1161.464063,
        1
      ],
      "name": "View-Frontal",
      "camera": 2
    },
    {
      "matrix": [
        0,
        1,
        0,
        0,
        0,
        0,
        1,
        0,
        1,
        0,
        0,
        0,
        776.114965,
        399.413025,
        1161.464063,
        1
      ],
      "name": "View-Derecha",
      "camera": 3
    },
    {
      "name": "Mesh",
      "mesh": 0
    },
    {
      "name": "Mesh",
      "mesh": 1
    },
    {
      "name": "Mesh",
      "mesh": 2
    },
    {
      "name": "Mesh",
      "mesh": 3
    },
    {
      "name": "Mesh",
      "mesh": 4
    },
    {
      "matrix": [
        36.574209,
        0.36190899999999987,
        0,
        0,
        -0.36190899999999987,
        36.574209,
        0,
        0,
        0,
        0,
        36.576,
        0,
        -59.995834,
        311.622244,
        -1.525821,
        1
      ],
      "name": "instance-def_1-aa826846-ff05-4cd7-bea9-689ac1a3430b",
      "children": [
        4,
        5,
        6,
        7,
        8
      ]
    },
    {
      "name": "Mesh",
      "mesh": 5
    },
    {
      "name": "Mesh",
      "mesh": 6
    },
    {
      "name": "Mesh",
      "mesh": 7
    },
    {
      "matrix": [
        0.0009997033629753262,
        0.00002435541122262816,
        -1.734723475976807e-21,
        0,
        -1.734723475976807e-21,
        -2.220446049250313e-19,
        -0.0010000000000000002,
        0,
        -0.00002435541122262816,
        0.0009997033629753262,
        -2.220446049250313e-19,
        0,
        0,
        0,
        0,
        1
      ],
      "name": "sireno.dae",
      "children": [
        0,
        1,
        2,
        3,
        9,
        10,
        11,
        12
      ]
    }
  ],
  "cameras": [
    {
      "type": "perspective",
      "perspective": {
        "aspectRatio": 1.12988,
        "yfov": 0.8726646259971648,
        "zfar": 2461.538896,
        "znear": 1458.884365
      },
      "name": "PerspectiveCamera"
    },
    {
      "type": "orthographic",
      "orthographic": {
        "xmag": 1,
        "ymag": 0.8638928220009313,
        "zfar": 1681.579442,
        "znear": 193.290387
      },
      "name": "OrthographicCamera"
    },
    {
      "type": "orthographic",
      "orthographic": {
        "xmag": 1,
        "ymag": 0.9019743316144709,
        "zfar": 214.549189,
        "znear": 24.661515
      },
      "name": "OrthographicCamera"
    },
    {
      "type": "orthographic",
      "orthographic": {
        "xmag": 1,
        "ymag": 0.9058077676639308,
        "zfar": 872.25517,
        "znear": 100.262013
      },
      "name": "OrthographicCamera"
    }
  ],
  "bufferViews": [
    {
      "buffer": 0,
      "byteOffset": 0,
      "byteLength": 432,
      "target": 34962,
      "byteStride": 12
    },
    {
      "buffer": 0,
      "byteOffset": 432,
      "byteLength": 432,
      "target": 34962,
      "byteStride": 12
    },
    {
      "buffer": 0,
      "byteOffset": 864,
      "byteLength": 288,
      "target": 34962,
      "byteStride": 8
    },
    {
      "buffer": 0,
      "byteOffset": 1152,
      "byteLength": 44352,
      "target": 34962,
      "byteStride": 12
    },
    {
      "buffer": 0,
      "byteOffset": 45504,
      "byteLength": 44352,
      "target": 34962,
      "byteStride": 12
    },
    {
      "buffer": 0,
      "byteOffset": 89856,
      "byteLength": 29568,
      "target": 34962,
      "byteStride": 8
    },
    {
      "buffer": 0,
      "byteOffset": 119424,
      "byteLength": 10944,
      "target": 34962,
      "byteStride": 12
    },
    {
      "buffer": 0,
      "byteOffset": 130368,
      "byteLength": 10944,
      "target": 34962,
      "byteStride": 12
    },
    {
      "buffer": 0,
      "byteOffset": 141312,
      "byteLength": 7296,
      "target": 34962,
      "byteStride": 8
    },
    {
      "buffer": 0,
      "byteOffset": 148608,
      "byteLength": 432,
      "target": 34962,
      "byteStride": 12
    },
    {
      "buffer": 0,
      "byteOffset": 149040,
      "byteLength": 432,
      "target": 34962,
      "byteStride": 12
    },
    {
      "buffer": 0,
      "byteOffset": 149472,
      "byteLength": 288,
      "target": 34962,
      "byteStride": 8
    },
    {
      "buffer": 0,
      "byteOffset": 149760,
      "byteLength": 432,
      "target": 34962,
      "byteStride": 12
    },
    {
      "buffer": 0,
      "byteOffset": 150192,
      "byteLength": 432,
      "target": 34962,
      "byteStride": 12
    },
    {
      "buffer": 0,
      "byteOffset": 150624,
      "byteLength": 288,
      "target": 34962,
      "byteStride": 8
    },
    {
      "buffer": 0,
      "byteOffset": 150912,
      "byteLength": 432,
      "target": 34962,
      "byteStride": 12
    },
    {
      "buffer": 0,
      "byteOffset": 151344,
      "byteLength": 432,
      "target": 34962,
      "byteStride": 12
    },
    {
      "buffer": 0,
      "byteOffset": 151776,
      "byteLength": 288,
      "target": 34962,
      "byteStride": 8
    },
    {
      "buffer": 0,
      "byteOffset": 152064,
      "byteLength": 3312,
      "target": 34962,
      "byteStride": 12
    },
    {
      "buffer": 0,
      "byteOffset": 155376,
      "byteLength": 3312,
      "target": 34962,
      "byteStride": 12
    },
    {
      "buffer": 0,
      "byteOffset": 158688,
      "byteLength": 2208,
      "target": 34962,
      "byteStride": 8
    },
    {
      "buffer": 0,
      "byteOffset": 160896,
      "byteLength": 3312,
      "target": 34962,
      "byteStride": 12
    },
    {
      "buffer": 0,
      "byteOffset": 164208,
      "byteLength": 3312,
      "target": 34962,
      "byteStride": 12
    },
    {
      "buffer": 0,
      "byteOffset": 167520,
      "byteLength": 2208,
      "target": 34962,
      "byteStride": 8
    }
  ],
  "buffers": [
    {
      "byteLength": 169728,
      "uri": "data:application/octet-stream;base64,"
    }
  ],
  "accessors": [
    {
      "bufferView": 0,
      "componentType": 5126,
      "count": 36,
      "max": [
        14.962259292602539,
        3.187221050262451,
        43.9842529296875
      ],
      "min": [
        10.18666934967041,
        1.5927330255508423,
        41.23228454589844
      ],
      "type": "VEC3"
    },
    {
      "bufferView": 1,
      "componentType": 5126,
      "count": 36,
      "max": [
        0.9954760074615479,
        0.9959400296211243,
        1
      ],
      "min": [
        -0.7553150057792664,
        -0.9792389869689941,
        -1
      ],
      "type": "VEC3"
    },
    {
      "bufferView": 2,
      "componentType": 5126,
      "count": 36,
      "max": [
        4.775589942932129,
        3.643472909927368
      ],
      "min": [
        -4.775589942932129,
        -0.4537369906902313
      ],
      "type": "VEC2"
    },
    {
      "bufferView": 3,
      "componentType": 5126,
      "count": 3696,
      "max": [
        19.178298950195312,
        3.224968433380127,
        50.291988372802734
      ],
      "min": [
        1.6946461200714111,
        1.8748832941055298,
        43.538387298583984
      ],
      "type": "VEC3"
    },
    {
      "bufferView": 4,
      "componentType": 5126,
      "count": 3696,
      "max": [
        0.9999650120735168,
        1,
        0.9999989867210388
      ],
      "min": [
        -0.9992719888687134,
        -1,
        -1
      ],
      "type": "VEC3"
    },
    {
      "bufferView": 5,
      "componentType": 5126,
      "count": 3696,
      "max": [
        1.8354389667510986,
        0.70899498462677
      ],
      "min": [
        -1.8354389667510986,
        0
      ],
      "type": "VEC2"
    },
    {
      "bufferView": 6,
      "componentType": 5126,
      "count": 912,
      "max": [
        6.325527667999268,
        2.9124486446380615,
        47.137062072753906
      ],
      "min": [
        -4.9404924595819466e-15,
        2.0873966217041016,
        45.3894157409668
      ],
      "type": "VEC3"
    },
    {
      "bufferView": 7,
      "componentType": 5126,
      "count": 912,
      "max": [
        0.5949370265007019,
        1,
        1
      ],
      "min": [
        -0.9996160268783569,
        -1,
        -0.9966880083084106
      ],
      "type": "VEC3"
    },
    {
      "bufferView": 8,
      "componentType": 5126,
      "count": 912,
      "max": [
        0.6640560030937195,
        0.18346799910068512
      ],
      "min": [
        -0.6640560030937195,
        0
      ],
      "type": "VEC2"
    },
    {
      "bufferView": 9,
      "componentType": 5126,
      "count": 36,
      "max": [
        14.24572467803955,
        3.8956692218780518,
        40.52362060546875
      ],
      "min": [
        11.16501522064209,
        0.8149606585502625,
        13.301072120666504
      ],
      "type": "VEC3"
    },
    {
      "bufferView": 10,
      "componentType": 5126,
      "count": 36,
      "max": [
        1,
        1,
        1
      ],
      "min": [
        -1,
        -1,
        -1
      ],
      "type": "VEC3"
    },
    {
      "bufferView": 11,
      "componentType": 5126,
      "count": 36,
      "max": [
        3.0807089805603027,
        40.52362060546875
      ],
      "min": [
        -3.0807089805603027,
        0
      ],
      "type": "VEC2"
    },
    {
      "bufferView": 12,
      "componentType": 5126,
      "count": 36,
      "max": [
        14.962259292602539,
        4.612204551696777,
        41.23228454589844
      ],
      "min": [
        4.086275577545166,
        1.7763568394002505e-15,
        40.52362060546875
      ],
      "type": "VEC3"
    },
    {
      "bufferView": 13,
      "componentType": 5126,
      "count": 36,
      "max": [
        1,
        1,
        1
      ],
      "min": [
        -1,
        -1,
        -1
      ],
      "type": "VEC3"
    },
    {
      "bufferView": 14,
      "componentType": 5126,
      "count": 36,
      "max": [
        10.875984191894531,
        4.6122050285339355
      ],
      "min": [
        -10.875984191894531,
        0
      ],
      "type": "VEC2"
    },
    {
      "bufferView": 15,
      "componentType": 5126,
      "count": 36,
      "max": [
        235.3863525390625,
        457.029052734375,
        1480.6661376953125
      ],
      "min": [
        121.59693908691406,
        343.2396240234375,
        484.97418212890625
      ],
      "type": "VEC3"
    },
    {
      "bufferView": 16,
      "componentType": 5126,
      "count": 36,
      "max": [
        0.9999510049819946,
        0.9999510049819946,
        1
      ],
      "min": [
        -0.9999510049819946,
        -0.9999510049819946,
        -1
      ],
      "type": "VEC3"
    },
    {
      "bufferView": 17,
      "componentType": 5126,
      "count": 36,
      "max": [
        3.0807089805603027,
        40.52362060546875
      ],
      "min": [
        -3.0807089805603027,
        0
      ],
      "type": "VEC2"
    },
    {
      "bufferView": 18,
      "componentType": 5126,
      "count": 276,
      "max": [
        597.0323486328125,
        388.6023864746094,
        1720.0069580078125
      ],
      "min": [
        569.1871948242188,
        383.6275329589844,
        1692.2069091796875
      ],
      "type": "VEC3"
    },
    {
      "bufferView": 19,
      "componentType": 5126,
      "count": 276,
      "max": [
        0.9999510049819946,
        0.9999510049819946,
        1
      ],
      "min": [
        -0.9999510049819946,
        -0.9999510049819946,
        -1
      ],
      "type": "VEC3"
    },
    {
      "bufferView": 20,
      "componentType": 5126,
      "count": 276,
      "max": [
        17.982044219970703,
        49.91899490356445
      ],
      "min": [
        -17.982044219970703,
        -11.407120704650879
      ],
      "type": "VEC2"
    },
    {
      "bufferView": 21,
      "componentType": 5126,
      "count": 276,
      "max": [
        601.0615844726562,
        440.82550048828125,
        1719.0865478515625
      ],
      "min": [
        573.2164306640625,
        435.8506774902344,
        1691.2864990234375
      ],
      "type": "VEC3"
    },
    {
      "bufferView": 22,
      "componentType": 5126,
      "count": 276,
      "max": [
        0.9999510049819946,
        0.9999510049819946,
        1
      ],
      "min": [
        -0.9999510049819946,
        -0.9999510049819946,
        -1
      ],
      "type": "VEC3"
    },
    {
      "bufferView": 23,
      "componentType": 5126,
      "count": 276,
      "max": [
        18.106327056884766,
        49.94330596923828
      ],
      "min": [
        -18.106327056884766,
        -11.533624649047852
      ],
      "type": "VEC2"
    }
  ],
  "materials": [
    {
      "pbrMetallicRoughness": {
        "baseColorFactor": [
          0.4,
          0.4,
          0.4,
          1
        ],
        "metallicFactor": 0.5,
        "roughnessFactor": 0.5
      },
      "name": "Material-_3"
    },
    {
      "pbrMetallicRoughness": {
        "baseColorFactor": [
          0.058823529411764705,
          0.03529411764705882,
          0.6274509803921569,
          1
        ],
        "metallicFactor": 0.5,
        "roughnessFactor": 0.5
      },
      "name": "Material-_9"
    },
    {
      "pbrMetallicRoughness": {
        "baseColorFactor": [
          0.058823529411764705,
          0.03529411764705882,
          0.6274509803921569,
          1
        ],
        "metallicFactor": 0.5,
        "roughnessFactor": 0.5
      },
      "name": "Material-_9"
    },
    {
      "pbrMetallicRoughness": {
        "baseColorFactor": [
          0.058823529411764705,
          0.03529411764705882,
          0.6274509803921569,
          1
        ],
        "metallicFactor": 0.5,
        "roughnessFactor": 0.5
      },
      "name": "Material-_9"
    },
    {
      "pbrMetallicRoughness": {
        "baseColorFactor": [
          0.058823529411764705,
          0.03529411764705882,
          0.6274509803921569,
          1
        ],
        "metallicFactor": 0.5,
        "roughnessFactor": 0.5
      },
      "name": "Material-_9"
    },
    {
      "pbrMetallicRoughness": {
        "baseColorFactor": [
          0.058823529411764705,
          0.03529411764705882,
          0.6274509803921569,
          1
        ],
        "metallicFactor": 0.5,
        "roughnessFactor": 0.5
      },
      "name": "Material-_9"
    },
    {
      "pbrMetallicRoughness": {
        "baseColorFactor": [
          0.10196078431372549,
          1,
          0.5058823529411764,
          1
        ],
        "metallicFactor": 0.5,
        "roughnessFactor": 0.5
      },
      "name": "Material-_6"
    },
    {
      "pbrMetallicRoughness": {
        "baseColorFactor": [
          0.10196078431372549,
          1,
          0.5058823529411764,
          1
        ],
        "metallicFactor": 0.5,
        "roughnessFactor": 0.5
      },
      "name": "Material-_6"
    }
  ],
  "meshes": [
    {
      "primitives": [
        {
          "mode": 4,
          "attributes": {
            "POSITION": 0,
            "NORMAL": 1,
            "TEXCOORD_0": 2
          },
          "material": 0
        }
      ]
    },
    {
      "primitives": [
        {
          "mode": 4,
          "attributes": {
            "POSITION": 3,
            "NORMAL": 4,
            "TEXCOORD_0": 5
          },
          "material": 1
        }
      ]
    },
    {
      "primitives": [
        {
          "mode": 4,
          "attributes": {
            "POSITION": 6,
            "NORMAL": 7,
            "TEXCOORD_0": 8
          },
          "material": 2
        }
      ]
    },
    {
      "primitives": [
        {
          "mode": 4,
          "attributes": {
            "POSITION": 9,
            "NORMAL": 10,
            "TEXCOORD_0": 11
          },
          "material": 3
        }
      ]
    },
    {
      "primitives": [
        {
          "mode": 4,
          "attributes": {
            "POSITION": 12,
            "NORMAL": 13,
            "TEXCOORD_0": 14
          },
          "material": 4
        }
      ]
    },
    {
      "primitives": [
        {
          "mode": 4,
          "attributes": {
            "POSITION": 15,
            "NORMAL": 16,
            "TEXCOORD_0": 17
          },
          "material": 5
        }
      ]
    },
    {
      "primitives": [
        {
          "mode": 4,
          "attributes": {
            "POSITION": 18,
            "NORMAL": 19,
            "TEXCOORD_0": 20
          },
          "material": 6
        }
      ]
    },
    {
      "primitives": [
        {
          "mode": 4,
          "attributes": {
            "POSITION": 21,
            "NORMAL": 22,
            "TEXCOORD_0": 23
          },
          "material": 7
        }
      ]
    }
  ]
}