<?xml version="1.0" encoding="UTF-8" standalone="no"?>
<!DOCTYPE svg PUBLIC "-//W3C//DTD SVG 1.1//EN" "http://www.w3.org/Graphics/SVG/1.1/DTD/svg11.dtd">
<svg width="100%" height="100%" viewBox="0 0 128 65" version="1.1" xmlns="http://www.w3.org/2000/svg" xmlns:xlink="http://www.w3.org/1999/xlink" xml:space="preserve" xmlns:serif="http://www.serif.com/" style="fill-rule:evenodd;clip-rule:evenodd;stroke-linejoin:round;stroke-miterlimit:2;">
    <g transform="matrix(0.0579072,0,0,0.0592099,6.66396,-5.56196)">
        <g id="surface1">
            <g id="Capa-1" serif:id="Capa 1">
                <g transform="matrix(1,0,0,1,827.98,836.755)">
                    <path d="M0,-37.141C52.42,-37.141 97.488,-60.409 97.488,-126.567C97.488,-194.206 45.839,-213.843 2.193,-213.843L-82.905,-213.843L-82.905,-37.141L0,-37.141ZM2.949,47.914L-82.905,47.914L-82.905,259.563L-202.12,259.563L-202.12,-296.704L15.264,-296.704C50.937,-296.704 91.708,-291.635 127.262,-276.371C179.637,-253.117 219.622,-210.197 219.622,-133.117C219.622,-45.129 164.372,-0.787 112.027,19.577L112.027,21.029L236.399,259.563L107.669,259.563L2.949,47.914Z" style="fill:rgb(69,56,209);fill-rule:nonzero;"/>
                </g>
                <g transform="matrix(1,0,0,1,1391.06,871.998)">
                    <path d="M0,-102.173L-84.372,-117.437C-137.414,-126.893 -157.777,-149.48 -157.777,-186.559C-157.777,-225.789 -125.839,-253.473 -74.16,-253.473C-24.082,-253.473 10.033,-223.136 23.521,-190.843L117.6,-241.246C92.909,-298.6 32.902,-339.949 -73.435,-339.949C-206.58,-339.949 -282.075,-267.952 -282.075,-169.768C-282.075,-81.069 -224.691,-29.493 -138.852,-12.806L-55.977,3.26C2.149,14.138 23.283,34.576 23.283,72.96C23.283,115.227 -7.218,148.647 -73.435,148.647C-134.82,148.647 -169.011,113.374 -185.803,66.023L-287.871,120.134C-261.342,192.619 -188.915,237.776 -76.398,237.776C65.462,237.776 146.913,170.492 146.913,51.233C146.913,-30.945 98.837,-83.958 0,-102.173" style="fill:rgb(69,56,209);fill-rule:nonzero;"/>
                </g>
                <g transform="matrix(1,0,0,1,1059.61,973.294)">
                    <path d="M0,-780.068L-780.054,-780.068L-780.054,-693.443L-780.025,-693.443L-780.025,-86.551L-780.084,-86.551L-780.084,-0.148L-780.025,-0.148L-780.025,0L-693.385,0L-693.385,-0.148L-563.114,-0.148L-563.114,-86.551L-693.385,-86.551L-693.385,-693.443L-86.655,-693.443L-86.655,-520.075L0.073,-520.075L0.073,-762.951L0,-762.951L0,-780.068Z" style="fill:rgb(69,56,209);fill-rule:nonzero;"/>
                </g>
            </g>
        </g>
    </g>
</svg>
