<?xml version="1.0" encoding="UTF-8" standalone="no"?>
<!DOCTYPE svg PUBLIC "-//W3C//DTD SVG 1.1//EN" "http://www.w3.org/Graphics/SVG/1.1/DTD/svg11.dtd">
<svg width="100%" height="100%" viewBox="0 0 531 270" version="1.1" xmlns="http://www.w3.org/2000/svg" xmlns:xlink="http://www.w3.org/1999/xlink" xml:space="preserve" xmlns:serif="http://www.serif.com/" style="fill-rule:evenodd;clip-rule:evenodd;stroke-linejoin:round;stroke-miterlimit:2;">
    <g transform="matrix(1,0,0,1,-84.6438,-62.2757)">
        <g transform="matrix(1,0,0,1,404.566,109.155)">
            <path d="M0,-24.777L-5.489,-24.777L-5.489,0.107L0.052,0.107C5.78,0.107 8.281,-1.954 8.281,-12.631C8.281,-22.576 5.98,-24.777 0,-24.777M0.148,5.98L-11.802,5.98L-11.802,-30.757L0,-30.757C10.481,-30.757 14.897,-25.711 14.897,-12.582C14.897,0.988 10.045,5.98 0.148,5.98" style="fill:rgb(92,255,189);fill-rule:nonzero;"/>
        </g>
        <g transform="matrix(1,0,0,1,0,-200.775)">
            <rect x="427.887" y="279.173" width="6.419" height="36.737" style="fill:rgb(92,255,189);"/>
        </g>
        <g transform="matrix(1,0,0,1,468.154,79.7668)">
            <path d="M0,34.053C-2.452,35.222 -6.269,36.01 -9.942,36.01C-20.969,36.01 -25.377,30.13 -25.377,17.05C-25.377,3.728 -20.578,-1.957 -9.701,-1.957C-6.563,-1.957 -3.091,-1.32 -0.688,-0.288L-1.325,5.443C-3.63,4.46 -6.517,3.875 -9.357,3.875C-16.265,3.875 -18.765,6.719 -18.765,16.999C-18.765,27.239 -16.408,30.084 -10.096,30.084C-8.43,30.084 -6.958,29.884 -5.634,29.444L-5.634,15.63L0,15.63L0,34.053Z" style="fill:rgb(92,255,189);fill-rule:nonzero;"/>
        </g>
        <g transform="matrix(1,0,0,1,0,-200.775)">
            <rect x="476.823" y="279.173" width="6.421" height="36.737" style="fill:rgb(92,255,189);"/>
        </g>
        <g transform="matrix(1,0,0,1,505.721,109.104)">
            <path d="M0,-24.675L0,6.031L-6.36,6.031L-6.36,-24.675L-15.674,-24.675L-15.52,-30.706L9.213,-30.706L9.357,-24.675L0,-24.675Z" style="fill:rgb(92,255,189);fill-rule:nonzero;"/>
        </g>
        <g transform="matrix(1,0,0,1,529.925,106.413)">
            <path d="M0,-19.292L-4.017,-4.841L5.926,-4.841L2.059,-19.292L1.124,-23.159L0.98,-23.159L0,-19.292ZM7.39,0.747L-5.536,0.747L-7.693,8.723L-14.354,8.723L-2.789,-28.015L4.895,-28.015L16.603,8.723L9.552,8.723L7.39,0.747Z" style="fill:rgb(92,255,189);fill-rule:nonzero;"/>
        </g>
        <g transform="matrix(1,0,0,1,573.376,84.3685)">
            <path d="M0,24.796L-0.2,30.767L-20.671,30.767L-20.671,-5.971L-14.308,-5.971L-14.308,24.796L0,24.796Z" style="fill:rgb(92,255,189);fill-rule:nonzero;"/>
        </g>
        <g transform="matrix(1,0,0,1,405.353,168.288)">
            <path d="M0,-25.473L-6.466,-25.473L-6.466,-15.77L0.148,-15.77C3.426,-15.77 4.85,-17.29 4.85,-20.669C4.85,-24.295 3.379,-25.473 0,-25.473M0.344,-10.722L-6.515,-10.722L-6.515,0.097L0.59,0.097C4.021,0.097 5.828,-1.179 5.828,-5.386C5.828,-9.206 4.211,-10.722 0.344,-10.722M0.441,5.631L-12.588,5.631L-12.588,-31.104L0.199,-31.104C7.351,-31.104 10.923,-27.869 10.923,-21.845C10.923,-17.582 9.018,-15.086 6.219,-13.913L6.219,-13.808C9.995,-12.688 12.152,-9.894 12.152,-4.947C12.152,1.666 8.769,5.631 0.441,5.631" style="fill:rgb(92,255,189);fill-rule:nonzero;"/>
        </g>
        <g transform="matrix(1,0,0,1,450.714,150.262)">
            <path d="M0,11.221C0,20.136 -4.504,24.299 -13.028,24.299C-21.549,24.299 -26.16,20.136 -26.16,11.221L-26.16,-13.078L-19.839,-13.078L-19.839,11.123C-19.839,16.117 -17.732,18.274 -13.028,18.274C-8.325,18.274 -6.271,16.169 -6.271,11.123L-6.271,-13.078L0,-13.078L0,11.221Z" style="fill:rgb(92,255,189);fill-rule:nonzero;"/>
        </g>
        <g transform="matrix(1,0,0,1,467.568,136.599)">
            <path d="M0,37.962C-3.82,37.962 -7.303,36.979 -9.996,35.37L-9.115,29.632C-6.372,31.25 -3.477,32.182 -0.148,32.182C4.019,32.182 5.974,30.369 5.974,27.089C5.974,20.034 -9.803,22.576 -9.803,10.628C-9.803,4.607 -6.175,0 1.854,0C5.141,0 8.418,0.683 10.875,1.811L10.082,7.395C7.441,6.465 4.851,5.875 2.25,5.875C-2.252,5.875 -3.728,7.832 -3.728,10.333C-3.728,17.142 12.049,14.503 12.049,26.697C12.049,33.799 7.688,37.962 0,37.962" style="fill:rgb(92,255,189);fill-rule:nonzero;"/>
        </g>
        <g transform="matrix(1,0,0,1,0,-83.205)">
            <rect x="487.254" y="220.389" width="6.419" height="36.735" style="fill:rgb(92,255,189);"/>
        </g>
        <g transform="matrix(1,0,0,1,525.025,137.184)">
            <path d="M0,36.735L-13.861,14.451L-15.869,11.021L-15.972,11.072L-15.921,15.042L-15.921,36.735L-21.503,36.735L-21.503,0L-15.972,0L-3.035,21.356L-1.027,24.735L-0.935,24.687L-1.027,20.771L-1.027,0L4.555,0L4.555,36.735L0,36.735Z" style="fill:rgb(92,255,189);fill-rule:nonzero;"/>
        </g>
        <g transform="matrix(1,0,0,1,560.937,143.008)">
            <path d="M0,25.087L-0.153,30.911L-22.047,30.911L-22.047,-5.824L-0.837,-5.824L-0.734,0.056L-15.776,0.056L-15.776,9.218L-2.994,9.218L-2.994,14.601L-15.776,14.601L-15.776,25.087L0,25.087Z" style="fill:rgb(92,255,189);fill-rule:nonzero;"/>
        </g>
        <g transform="matrix(1,0,0,1,576.56,136.599)">
            <path d="M0,37.962C-3.82,37.962 -7.302,36.979 -9.993,35.37L-9.11,29.632C-6.372,31.25 -3.481,32.182 -0.144,32.182C4.017,32.182 5.978,30.369 5.978,27.089C5.978,20.034 -9.798,22.576 -9.798,10.628C-9.798,4.607 -6.173,0 1.859,0C5.146,0 8.423,0.683 10.877,1.811L10.092,7.395C7.447,6.465 4.853,5.875 2.255,5.875C-2.249,5.875 -3.723,7.832 -3.723,10.333C-3.723,17.142 12.053,14.503 12.053,26.697C12.053,33.799 7.688,37.962 0,37.962" style="fill:rgb(92,255,189);fill-rule:nonzero;"/>
        </g>
        <g transform="matrix(1,0,0,1,603.306,136.599)">
            <path d="M0,37.962C-3.816,37.962 -7.302,36.979 -9.989,35.37L-9.11,29.632C-6.368,31.25 -3.472,32.182 -0.144,32.182C4.019,32.182 5.979,30.369 5.979,27.089C5.979,20.034 -9.798,22.576 -9.798,10.628C-9.798,4.607 -6.168,0 1.861,0C5.147,0 8.425,0.683 10.875,1.811L10.089,7.395C7.444,6.465 4.855,5.875 2.252,5.875C-2.25,5.875 -3.723,7.832 -3.723,10.333C-3.723,17.142 12.051,14.503 12.051,26.697C12.051,33.799 7.695,37.962 0,37.962" style="fill:rgb(92,255,189);fill-rule:nonzero;"/>
        </g>
        <g transform="matrix(1,0,0,1,155.501,175.207)">
            <path d="M0,-4.112C5.801,-4.112 10.8,-6.687 10.8,-14.025C10.8,-21.524 5.081,-23.702 0.242,-23.702L-9.194,-23.702L-9.194,-4.112L0,-4.112ZM0.321,5.324L-9.194,5.324L-9.194,28.784L-22.411,28.784L-22.411,-32.896L1.692,-32.896C5.643,-32.896 10.154,-32.324 14.107,-30.635C19.913,-28.05 24.343,-23.298 24.343,-14.75C24.343,-4.995 18.221,-0.084 12.416,2.18L12.416,2.342L26.202,28.784L11.932,28.784L0.321,5.324Z" style="fill:white;fill-rule:nonzero;"/>
        </g>
        <g transform="matrix(1,0,0,1,198.562,182.469)">
            <path d="M0,-0.091C0,8.299 2.421,14.021 8.706,14.021C15.155,14.021 17.249,7.895 17.249,-0.091C17.249,-8.385 14.99,-14.114 8.706,-14.114C2.333,-14.114 0,-8.07 0,-0.091M-13.225,-0.091C-13.225,-14.27 -4.836,-22.739 8.706,-22.739C21.925,-22.739 30.548,-14.359 30.548,-0.091C30.548,14.021 21.603,22.648 8.622,22.648C-5,22.648 -13.225,14.021 -13.225,-0.091" style="fill:white;fill-rule:nonzero;"/>
        </g>
        <g transform="matrix(1,0,0,1,0,-48.639)">
            <path d="M236.915,209.41L249.728,209.41L249.728,252.629L236.915,252.629L236.915,209.41ZM236.831,190.318L249.813,190.318L249.813,201.922L236.831,201.922L236.831,190.318Z" style="fill:white;fill-rule:nonzero;"/>
        </g>
        <g transform="matrix(1,0,0,1,214.171,271.48)">
            <path d="M0,-12.353C-0.407,-16.987 -2.603,-20.401 -7.477,-20.401C-14.224,-20.401 -16.259,-13.58 -16.259,-6.34C-16.259,0.404 -14.872,7.799 -7.56,7.799C-1.869,7.799 0.163,3.658 0.323,-0.572L12.843,-0.572C12.516,10.888 3.905,16.664 -7.56,16.664C-21.619,16.664 -29.502,8.048 -29.502,-6.18C-29.502,-20.315 -21.049,-29.017 -7.477,-29.017C4.144,-29.017 12.355,-23.323 12.676,-12.353L0,-12.353Z" style="fill:white;fill-rule:nonzero;"/>
        </g>
        <g transform="matrix(1,0,0,1,234.528,286.346)">
            <path d="M0,-42.822L12.19,-42.822L12.19,-33.637L12.353,-33.637C14.793,-40.224 20.889,-43.559 26.739,-43.559L27.469,-43.559L27.469,-31.852L25.196,-31.852C17.308,-31.852 12.841,-29.168 12.841,-20.797L12.841,0.737L0,0.737L0,-42.822Z" style="fill:white;fill-rule:nonzero;"/>
        </g>
        <g transform="matrix(1,0,0,1,279.694,265.387)">
            <path d="M0,-0.087C0,8.368 2.438,14.142 8.778,14.142C15.279,14.142 17.396,7.962 17.396,-0.087C17.396,-8.456 15.116,-14.222 8.778,-14.222C2.364,-14.222 0,-8.131 0,-0.087M-13.329,-0.087C-13.329,-14.387 -4.874,-22.923 8.778,-22.923C22.112,-22.923 30.806,-14.473 30.806,-0.087C30.806,14.142 21.784,22.836 8.699,22.836C-5.041,22.836 -13.329,14.142 -13.329,-0.087" style="fill:white;fill-rule:nonzero;"/>
        </g>
        <g transform="matrix(1,0,0,1,0,115.815)">
            <rect x="317.998" y="107.226" width="12.917" height="64.041" style="fill:white;"/>
        </g>
        <g transform="matrix(1,0,0,1,0,115.815)">
            <rect x="341.477" y="107.226" width="12.927" height="64.041" style="fill:white;"/>
        </g>
        <g transform="matrix(1,0,0,1,354.382,203.589)">
            <path d="M0,-12.869L0,-141.313L-12.838,-141.313L-12.838,-141.301L-258.555,-141.301L-258.555,-141.297L-269.738,-141.297L-269.738,128.444L-256.886,128.444L-256.886,128.442L-0.165,128.442L-0.165,115.598L-256.886,115.598L-256.886,-128.465L-12.838,-128.465L-12.838,-12.869L0,-12.869Z" style="fill:rgb(92,255,189);fill-rule:nonzero;"/>
        </g>
        <g transform="matrix(1,0,0,1,162.794,261.747)">
            <path d="M0,-11.376L-9.387,-13.072C-15.293,-14.126 -17.557,-16.64 -17.557,-20.766C-17.557,-25.128 -14,-28.209 -8.25,-28.209C-2.682,-28.209 1.134,-24.842 2.642,-21.251L13.092,-26.852C10.345,-33.237 3.663,-37.836 -8.172,-37.836C-22.985,-37.836 -31.39,-29.823 -31.39,-18.895C-31.39,-9.024 -25.003,-3.283 -15.451,-1.427L-6.229,0.356C0.242,1.571 2.593,3.845 2.593,8.118C2.593,12.82 -0.802,16.539 -8.172,16.539C-14.998,16.539 -18.812,12.618 -20.68,7.342L-32.038,13.364C-29.084,21.434 -21.026,26.46 -8.5,26.46C7.286,26.46 16.353,18.97 16.353,5.697C16.353,-3.446 11,-9.348 0,-11.376" style="fill:white;fill-rule:nonzero;"/>
        </g>
    </g>
</svg>
